<svg xmlns="http://www.w3.org/2000/svg" viewBox="0 0 477.5 386.05">
    <defs>
        <style>
            .cls-1{fill:#92b8dd;}.cls-2{fill:#9fc6ff;}.cls-3{fill:#7fa2cc;}.cls-4{fill:#6b8daf;}.cls-5{fill:#4d6477;}.cls-6{fill:#3d515e;}.cls-7{fill:#28333a;}
        </style>
    </defs>
    <title>NoTextLogo</title>
    <g id="Layer_2" data-name="Layer 2">
        <g id="Layer_1-2" data-name="Layer 1">
            <polygon class="cls-1" points="0 139.89 94.7 144.95 261.14 81.71 109.16 67.59 0 139.89"/>
            <polygon class="cls-2" points="429.06 317.37 265.68 386.05 210.01 268.21 335.8 141.7 429.06 317.37"/>
            <polygon class="cls-2"
                     points="261.34 81.69 293.26 166.63 201.7 249.78 188.69 289.54 94.7 144.95 261.34 81.69"/>
            <polygon class="cls-3" points="210.01 268.21 189.05 289.18 201.5 249.05 210.01 268.21"/>
            <polygon class="cls-4" points="293.15 166.28 298.14 179.54 210.01 268.21 201.34 249.41 293.15 166.28"/>
            <polygon class="cls-5" points="331.47 132.3 298.21 179.29 293.15 166.28 331.47 132.3"/>
            <polygon class="cls-6" points="335.8 141.7 298.21 179.29 331.47 132.3 335.8 141.7"/>
            <polygon class="cls-7" points="477.5 0 331.47 132.3 335.8 141.7 477.5 0"/>
            <polygon class="cls-3" points="429.06 317.37 335.8 141.7 477.5 0 429.06 317.37"/>
            <polygon class="cls-3" points="261.34 81.69 109.53 67.96 477.5 0 261.34 81.69"/>
            <polygon class="cls-4" points="293.15 166.28 477.5 0 261.34 81.69 293.15 166.28"/>
        </g>
    </g>
</svg>