<svg xmlns="http://www.w3.org/2000/svg" viewBox="0 0 1619.48 386.05">
    <defs>
        <style>
            .cls-1{fill:#92b8dd;}.cls-2{fill:#9fc6ff;}.cls-3{fill:#7fa2cc;}.cls-4{fill:#6b8daf;}.cls-5{fill:#4d6477;}.cls-6{fill:#3d515e;}.cls-7{fill:#28333a;}.cls-8{font-size:235.26px;font-family:BebasNeue-Regular,
            Bebas
            Neue;}.cls-9{letter-spacing:0em;}.cls-10{letter-spacing:0em;}.cls-11{letter-spacing:-0.05em;}.cls-12{font-size:200px;fill:#333;font-family:Montserrat-Regular,
            Montserrat;}.cls-13{letter-spacing:0em;}.cls-14{letter-spacing:-0.03em;}.cls-15{fill:#fff;}.cls-16{fill:#e6e6e6;}
        </style>
    </defs>
    <title>YYC Logo</title>
    <g id="Layer_1" data-name="Layer 1">
        <polygon class="cls-1" points="0 139.89 94.7 144.95 261.14 81.71 109.16 67.59 0 139.89"/>
        <polygon class="cls-2" points="429.06 317.37 265.68 386.05 210.01 268.21 335.8 141.7 429.06 317.37"/>
        <polygon class="cls-2" points="261.34 81.69 293.26 166.63 201.7 249.78 188.69 289.54 94.7 144.95 261.34 81.69"/>
        <polygon class="cls-3" points="210.01 268.21 189.05 289.18 201.5 249.05 210.01 268.21"/>
        <polygon class="cls-4" points="293.15 166.28 298.14 179.54 210.01 268.21 201.34 249.41 293.15 166.28"/>
        <polygon class="cls-5" points="331.47 132.3 298.21 179.29 293.15 166.28 331.47 132.3"/>
        <polygon class="cls-6" points="335.8 141.7 298.21 179.29 331.47 132.3 335.8 141.7"/>
        <polygon class="cls-7" points="477.5 0 331.47 132.3 335.8 141.7 477.5 0"/>
        <polygon class="cls-3" points="429.06 317.37 335.8 141.7 477.5 0 429.06 317.37"/>
        <polygon class="cls-3" points="261.34 81.69 109.53 67.96 477.5 0 261.34 81.69"/>
        <polygon class="cls-4" points="293.15 166.28 477.5 0 261.34 81.69 293.15 166.28"/>
    </g>
    <g id="Font">
        <text class="cls-8" transform="translate(517.97 268.02) scale(0.99 1)">M
            <tspan class="cls-9" x="126.57" y="0">A</tspan>
            <tspan class="cls-10" x="220.44" y="0">G</tspan>
            <tspan class="cls-11" x="312.42" y="0">T</tspan>
            <tspan x="387.24" y="0">ABLE</tspan>
        </text>
        <text class="cls-12" transform="translate(1288.12 267.8) scale(0.85 1)">
            <tspan class="cls-13">Y</tspan>
            <tspan class="cls-14" x="126.6" y="0">Y</tspan>
            <tspan x="247.6" y="0">C</tspan>
        </text>
    </g>
    <g id="Font_copy" data-name="Font copy">
        <path class="cls-15"
              d="M534,110.29h36.61L587,228.15h.46l16.33-117.86h36.62V275H616.13V150.28h-.46L597,275H575.55L556.89,150.28h-.47V275H534Z"
              transform="translate(-6.5 -6.95)"/>
        <path class="cls-15"
              d="M679.34,110.29h34.75L740.68,275H715l-4.66-32.7v.47H681.2L676.54,275H652.75Zm28,110.1L695.9,139h-.47l-11.2,81.4Z"
              transform="translate(-6.5 -6.95)"/>
        <path class="cls-15"
              d="M760.5,266.62q-9.79-10.71-9.8-30.7V149.34q0-20,9.8-30.7T789,107.93q18.66,0,28.46,10.71t9.79,30.7v14.12H803V147.69q0-16.23-13.3-16.23t-13.29,16.23V237.8q0,16,13.29,16t13.3-16V205.57H790.12V182H827.2v53.88q0,20-9.79,30.7T789,277.32Q770.29,277.32,760.5,266.62Z"
              transform="translate(-6.5 -6.95)"/>
        <path class="cls-15" d="M863.82,133.81H837V110.29h79.3v23.52H889.47V275H863.82Z"
              transform="translate(-6.5 -6.95)"/>
        <path class="cls-15"
              d="M937.75,110.29H972.5L999.09,275H973.44l-4.67-32.7v.47H939.62L935,275H911.16Zm28,110.1L954.31,139h-.47l-11.19,81.4Z"
              transform="translate(-6.5 -6.95)"/>
        <path class="cls-15"
              d="M1011.45,110.29h38.72q19.82,0,28.92,9.29t9.09,28.58v6.59q0,12.7-4.08,20.7A24,24,0,0,1,1071.62,187v.47q19.13,6.6,19.13,34.35v14.12q0,19.05-9.92,29.05t-29,10h-40.35Zm35.68,67.05q7.69,0,11.55-4t3.85-13.41v-9.18q0-8.94-3.15-12.94t-9.91-4H1037.1v43.53Zm4.67,74.1q6.77,0,10-3.64t3.26-12.59V220.86q0-11.3-3.85-15.65t-12.71-4.35H1037.1v50.58Z"
              transform="translate(-6.5 -6.95)"/>
        <path class="cls-15" d="M1105.67,110.29h25.66V251.44h42.21V275h-67.87Z" transform="translate(-6.5 -6.95)"/>
        <path class="cls-15" d="M1185.9,110.29h70v23.52h-44.31v43.53h35.22v23.52h-35.22v50.58h44.31V275h-70Z"
              transform="translate(-6.5 -6.95)"/>
        <path class="cls-16" d="M1354.56,226.35v48.4H1342.2v-48.4l-47.42-91.6h13.38l40.64,78.6,40.64-78.6H1402Z"
              transform="translate(-6.5 -6.95)"/>
        <path class="cls-16" d="M1461.74,226.35v48.4h-12.36v-48.4L1402,134.75h13.37l40.64,78.6,40.64-78.6h12.53Z"
              transform="translate(-6.5 -6.95)"/>
        <path class="cls-16"
              d="M1543.27,266.75a62.73,62.73,0,0,1-22.18-25.5q-8.05-16.31-8-36.5t8-36.5a62.54,62.54,0,0,1,22.26-25.5,59.72,59.72,0,0,1,56.22-4,51.07,51.07,0,0,1,19,15.2l-8,9.4q-13.87-16.6-35-16.6a45.35,45.35,0,0,0-25.56,7.6,51.87,51.87,0,0,0-18,20.8,70.45,70.45,0,0,0,0,59.2,51.87,51.87,0,0,0,18,20.8,45.35,45.35,0,0,0,25.56,7.6q21.35,0,35-16.8l8,9.4a51.74,51.74,0,0,1-19,15.3,59.26,59.26,0,0,1-56.21-3.9Z"
              transform="translate(-6.5 -6.95)"/>
    </g>
</svg>