<svg xmlns="http://www.w3.org/2000/svg" viewBox="0 0 1555.6 386.05">
    <defs>
        <style>
            .cls-1{fill:#92b8dd;}.cls-2{fill:#9fc6ff;}.cls-3{fill:#7fa2cc;}.cls-4{fill:#6b8daf;}.cls-5{fill:#4d6477;}.cls-6{fill:#3d515e;}.cls-7{fill:#28333a;}.cls-8{fill:#fff;}
        </style>
    </defs>
    <title>YYC Logo2</title>
    <g id="Layer_1" data-name="Layer 1">
        <polygon class="cls-1" points="0 139.89 94.7 144.95 261.14 81.71 109.16 67.59 0 139.89"/>
        <polygon class="cls-2" points="429.06 317.37 265.68 386.05 210.01 268.21 335.8 141.7 429.06 317.37"/>
        <polygon class="cls-2" points="261.34 81.69 293.26 166.63 201.7 249.78 188.69 289.54 94.7 144.95 261.34 81.69"/>
        <polygon class="cls-3" points="210.01 268.21 189.05 289.18 201.5 249.05 210.01 268.21"/>
        <polygon class="cls-4" points="293.15 166.28 298.14 179.54 210.01 268.21 201.34 249.41 293.15 166.28"/>
        <polygon class="cls-5" points="331.47 132.3 298.21 179.29 293.15 166.28 331.47 132.3"/>
        <polygon class="cls-6" points="335.8 141.7 298.21 179.29 331.47 132.3 335.8 141.7"/>
        <polygon class="cls-7" points="477.5 0 331.47 132.3 335.8 141.7 477.5 0"/>
        <polygon class="cls-3" points="429.06 317.37 335.8 141.7 477.5 0 429.06 317.37"/>
        <polygon class="cls-3" points="261.34 81.69 109.53 67.96 477.5 0 261.34 81.69"/>
        <polygon class="cls-4" points="293.15 166.28 477.5 0 261.34 81.69 293.15 166.28"/>
    </g>
    <g id="Font_copy" data-name="Font copy">
        <path class="cls-8" d="M557.59,204.86l-31-94.57h27.29l17.49,60.46h.47l17.49-60.46h25l-31,94.57V275H557.59Z"
              transform="translate(-6.5 -6.95)"/>
        <path class="cls-8" d="M649.48,204.86l-31-94.57h27.29l17.49,60.46h.47l17.49-60.46h25l-31,94.57V275H649.48Z"
              transform="translate(-6.5 -6.95)"/>
        <path class="cls-8"
              d="M721.67,266.74Q712,256.15,712,236.86V148.4q0-19.29,9.68-29.88t28.1-10.59q18.42,0,28.11,10.59t9.68,29.88v17.41H763.3V146.75q0-15.28-12.83-15.29t-12.82,15.29v92q0,15.06,12.82,15.06t12.83-15.06V213.57h24.26v23.29q0,19.29-9.68,29.88t-28.11,10.58Q731.35,277.32,721.67,266.74Z"
              transform="translate(-6.5 -6.95)"/>
        <path class="cls-8"
              d="M840.26,110.29h36.62l16.33,117.86h.46L910,110.29h36.62V275H922.36V150.28h-.47L903.24,275H881.78L863.12,150.28h-.47V275H840.26Z"
              transform="translate(-6.5 -6.95)"/>
        <path class="cls-8"
              d="M985.56,110.29h34.76L1046.9,275h-25.65l-4.67-32.7v.47H987.43L982.77,275H959Zm28,110.1L1002.12,139h-.46l-11.2,81.4Z"
              transform="translate(-6.5 -6.95)"/>
        <path class="cls-8"
              d="M1066.73,266.62q-9.8-10.71-9.8-30.7V149.34q0-20,9.8-30.7t28.45-10.71q18.66,0,28.45,10.71t9.8,30.7v14.12h-24.26V147.69q0-16.23-13.29-16.23t-13.3,16.23V237.8q0,16,13.3,16t13.29-16V205.57h-12.82V182h37.08v53.88q0,20-9.8,30.7t-28.45,10.7Q1076.52,277.32,1066.73,266.62Z"
              transform="translate(-6.5 -6.95)"/>
        <path class="cls-8" d="M1170,133.81h-26.82V110.29h79.3v23.52H1195.7V275H1170Z"
              transform="translate(-6.5 -6.95)"/>
        <path class="cls-8"
              d="M1244,110.29h34.75L1305.32,275h-25.65l-4.67-32.7v.47h-29.15L1241.18,275h-23.79Zm28,110.1L1260.54,139h-.47l-11.19,81.4Z"
              transform="translate(-6.5 -6.95)"/>
        <path class="cls-8"
              d="M1317.68,110.29h38.71q19.83,0,28.92,9.29t9.1,28.58v6.59q0,12.7-4.08,20.7A24,24,0,0,1,1377.85,187v.47q19.13,6.6,19.13,34.35v14.12q0,19.05-9.92,29.05t-29,10h-40.35Zm35.68,67.05q7.7,0,11.55-4t3.84-13.41v-9.18q0-8.94-3.14-12.94t-9.92-4h-12.36v43.53Zm4.67,74.1q6.75,0,10-3.64t3.26-12.59V220.86q0-11.3-3.85-15.65t-12.71-4.35h-11.43v50.58Z"
              transform="translate(-6.5 -6.95)"/>
        <path class="cls-8" d="M1411.9,110.29h25.66V251.44h42.21V275H1411.9Z" transform="translate(-6.5 -6.95)"/>
        <path class="cls-8" d="M1492.13,110.29h70v23.52h-44.31v43.53H1553v23.52h-35.21v50.58h44.31V275h-70Z"
              transform="translate(-6.5 -6.95)"/>
    </g>
</svg>